<svg width="100" height="100" fill="none" xmlns="http://www.w3.org/2000/svg"><path d="M88.227 40.164c-1.473-1.539-2.996-3.125-3.57-4.52-.532-1.277-.563-3.394-.594-5.445-.06-3.812-.122-8.133-3.126-11.137-3.003-3.003-7.324-3.066-11.136-3.125-2.051-.03-4.168-.062-5.445-.593-1.391-.574-2.981-2.098-4.52-3.57C57.14 9.183 54.078 6.25 50 6.25s-7.137 2.934-9.836 5.523c-1.539 1.473-3.125 2.997-4.52 3.57-1.269.532-3.394.563-5.445.595-3.812.058-8.133.12-11.137 3.124-3.003 3.004-3.046 7.325-3.125 11.137-.03 2.051-.062 4.168-.593 5.445-.574 1.391-2.098 2.981-3.57 4.52C9.183 42.86 6.25 45.922 6.25 50s2.934 7.137 5.523 9.836c1.473 1.539 2.997 3.125 3.57 4.52.532 1.277.563 3.394.595 5.445.058 3.812.12 8.133 3.124 11.136 3.004 3.004 7.325 3.067 11.137 3.126 2.051.03 4.168.062 5.445.593 1.391.575 2.981 2.098 4.52 3.57 2.695 2.59 5.758 5.524 9.836 5.524s7.137-2.934 9.836-5.523c1.539-1.473 3.125-2.996 4.52-3.57 1.277-.532 3.394-.563 5.445-.594 3.812-.06 8.133-.122 11.136-3.126 3.004-3.003 3.067-7.324 3.126-11.136.03-2.051.062-4.168.593-5.445.575-1.391 2.098-2.981 3.57-4.52 2.59-2.695 5.524-5.758 5.524-9.836s-2.934-7.137-5.523-9.836zm-4.512 15.348c-1.871 1.953-3.809 3.972-4.836 6.453-.985 2.383-1.027 5.105-1.067 7.742-.039 2.734-.081 5.598-1.296 6.809-1.215 1.21-4.059 1.257-6.809 1.296-2.637.04-5.36.082-7.742 1.067-2.48 1.027-4.5 2.965-6.453 4.836-1.953 1.87-3.95 3.785-5.512 3.785-1.563 0-3.574-1.922-5.512-3.785-1.937-1.863-3.972-3.809-6.453-4.836-2.383-.985-5.105-1.027-7.742-1.067-2.734-.039-5.598-.081-6.809-1.296-1.21-1.215-1.257-4.059-1.297-6.809-.039-2.637-.082-5.36-1.066-7.742-1.027-2.48-2.965-4.5-4.836-6.453-1.87-1.953-3.785-3.95-3.785-5.512 0-1.563 1.922-3.574 3.785-5.512 1.863-1.937 3.809-3.972 4.836-6.453.985-2.383 1.027-5.105 1.067-7.742.039-2.734.082-5.598 1.296-6.809 1.215-1.21 4.059-1.257 6.809-1.297 2.637-.039 5.36-.082 7.742-1.066 2.48-1.027 4.5-2.965 6.453-4.836 1.953-1.87 3.95-3.785 5.512-3.785 1.563 0 3.574 1.922 5.512 3.785 1.937 1.863 3.972 3.809 6.453 4.836 2.383.985 5.105 1.027 7.742 1.067 2.734.039 5.598.082 6.809 1.296 1.21 1.215 1.257 4.059 1.296 6.809.04 2.637.082 5.36 1.067 7.742 1.027 2.48 2.965 4.5 4.836 6.453 1.87 1.953 3.785 3.95 3.785 5.512 0 1.563-1.922 3.574-3.785 5.512zm-15.88-17.098a3.124 3.124 0 010 4.422L45.962 64.71a3.124 3.124 0 01-4.422 0l-9.375-9.375a3.126 3.126 0 114.422-4.422l7.164 7.168 19.664-19.668a3.122 3.122 0 014.422 0z" fill="#A20F30"/></svg>