<svg xmlns="http://www.w3.org/2000/svg" width="50" height="50" fill="none"><path d="M42.262 0a5.357 5.357 0 015.357 5.357v13.005c0 2.052-.815 4.02-2.267 5.471l-.061.062a15.476 15.476 0 00-3.405-1.647l.94-.94a4.167 4.167 0 001.222-2.946V5.357a1.786 1.786 0 00-1.786-1.786H29.248A4.17 4.17 0 0026.3 4.793L6.033 25.086a4.167 4.167 0 00.036 5.862l10.622 10.604a4.179 4.179 0 005.547.31 15.463 15.463 0 001.557 3.274 7.752 7.752 0 01-9.626-1.055L3.545 33.476a7.738 7.738 0 01-.01-10.943l20.24-20.262A7.738 7.738 0 0129.25.002L42.262 0zm-6.548 8.338a3.572 3.572 0 110 7.144 3.572 3.572 0 010-7.144zM50 36.905a13.095 13.095 0 11-26.19 0 13.095 13.095 0 0126.19 0zM36.905 28.57a1.19 1.19 0 00-1.19 1.19v9.525a1.19 1.19 0 102.38 0v-9.524a1.19 1.19 0 00-1.19-1.19zm0 16.965a1.488 1.488 0 100-2.976 1.488 1.488 0 000 2.976z" fill="#A20F30"/></svg>