<svg xmlns="http://www.w3.org/2000/svg" viewBox="0 0 275 64" class="logo"><path d="M0 14.866C0 10.599 3.488 7.11 7.755 7.11c4.266 0 7.754 3.488 7.754 7.755 0 .474-.034.948-.136 1.422-1.252-.508-2.607-.813-4.03-.813a10.41 10.41 0 00-8.905 5.012C.948 19.065 0 17.067 0 14.866zm13.003 11.039c0-2.506.88-4.809 2.37-6.603-1.185-.712-2.573-1.152-4.03-1.152-4.266 0-7.754 3.488-7.754 7.755 0 4.266 3.488 7.754 7.755 7.754 1.49 0 2.844-.44 4.03-1.151a10.293 10.293 0 01-2.37-6.603zm14.02-.61c-3.76 0-7.078-2.032-8.907-5.011-1.49 1.422-2.438 3.42-2.438 5.62 0 4.267 3.488 7.755 7.755 7.755 4.267 0 7.754-3.488 7.754-7.754 0-.474-.067-.948-.135-1.422-1.22.541-2.608.812-4.03.812zm.778-18.15c0 .203.034.406.034.576 0 4.876-3.386 9.007-7.924 10.125 1.185 2.776 3.928 4.74 7.145 4.74 4.267 0 7.755-3.488 7.755-7.754-.034-3.962-3.116-7.28-7.01-7.687zM17.371 0c-3.216 0-5.96 1.964-7.144 4.74 4.537 1.118 7.957 5.216 7.957 10.126 0 .203 0 .406-.034.575 3.894-.406 6.976-3.69 6.976-7.72C25.126 3.488 21.672 0 17.37 0z" fill="#A50E2D"/><path d="M48.424 8.194c-.305 0-.745.204-.88.305-.102.102-.271.44-.305 1.185-.034.644-.034 4.64-.068 8.297 0 2.946.068 5.011.068 5.824.034 1.964.135 2.54 1.998 3.014.643.135.914.372.914.677 0 .27-.542.44-.982.44-.847 0-2.675-.203-4.098-.203-.948 0-2.505.136-3.521.136-.745 0-1.185-.17-1.185-.508 0-.238.44-.474.778-.576 1.592-.373 1.964-.88 2.066-2.337a72.34 72.34 0 00.203-5.011c0-1.016 0-8.229-.068-9.177-.101-1.117-.27-1.625-2.031-1.862-.407-.068-.745-.305-.745-.474 0-.271.305-.44.677-.508.203-.034.779-.034 1.05-.034 2.065 0 4.707-.271 6.163-.271 3.081 0 5.18.575 6.501 1.862 1.524 1.49 1.863 3.217 1.863 4.335 0 2.64-1.186 4.063-2.134 4.876-.846.711-2.607 1.456-3.86 1.456-.339 0-1.253-.068-1.66-.237-.44-.203-.676-.339-.676-.643 0-.136.237-.305.474-.305h.474c1.354 0 3.352-1.626 3.352-4.944 0-2.608-1.727-5.317-4.368-5.317zm32.914 9.076c0 4.232-1.795 6.941-4.064 8.77-1.829 1.422-4.572 2.303-7.043 2.303-3.387 0-6.333-1.287-8.364-3.454-1.727-1.863-2.777-4.403-2.777-7.383 0-3.928 1.727-6.433 4.165-8.364 1.456-1.117 4.165-2.302 6.84-2.302 7.111 0 11.243 5.282 11.243 10.43zM65.693 9.617c-1.084 1.05-2.269 3.386-2.269 7.212 0 4.944 3.014 10.328 7.72 10.328a4.66 4.66 0 003.285-1.32c1.355-1.355 2.472-4.132 2.472-7.552 0-2.54-.981-6.4-3.352-8.567-1.084-.948-2.844-1.727-4.267-1.727-1.422-.034-2.844.88-3.589 1.626zm34.879-2.269c.779.203 1.591.372 2.302.474.237 0 .474.373.474.88.034.915.102 2.032.17 2.947.034.677-.203 1.219-.542 1.219-.169 0-.44-.373-.61-.88-.338-.983-.812-1.863-1.354-2.304-1.388-1.15-3.014-1.862-4.775-1.862-5.113 0-7.551 4.064-7.551 8.94 0 2.167.372 4.03 1.084 5.452 1.76 3.555 4.707 4.808 7.212 4.808.407 0 1.998-.068 3.116-.745 1.185-.677 2.065-1.625 2.81-2.946.373-.711.61-.982.881-.982.338 0 .338.847.271 1.185-.17.813-.678 2.235-.949 2.81-.101.305-.677.813-1.151 1.017-.44.169-2.675.948-5.621.948-4.775 0-8.16-2.134-9.482-3.623-1.219-1.423-2.709-3.658-2.709-7.247 0-3.894 2.202-6.637 3.556-7.72 2.743-2.27 6.061-2.913 8.703-2.913a21.44 21.44 0 014.165.542zm6.569-.136c.779 0 2.303.17 3.318.17.983 0 2.845-.136 3.59-.136.643 0 .982.17.982.44 0 .305-.474.44-.847.542-1.253.339-1.523.508-1.625 1.964-.068 1.185-.034 4.809-.034 6.299 0 .135.102.338.237.338 1.727-.135 2.811-.677 3.962-2.54.914-1.49 1.558-2.708 2.337-3.961 1.286-2.134 2.844-3.488 4.571-3.488 1.084 0 1.659.44 1.659 1.354 0 .305-.237.847-.406 1.016-.271.305-.542.339-.948.305-.339-.068-.779-.17-1.084-.17-1.896 0-2.743 1.355-3.623 2.777-.914 1.423-1.626 2.54-2.1 3.217a.383.383 0 000 .271c.745 1.422 3.624 5.96 5.012 7.822 2.133 2.811 2.946 3.014 4.673 3.42.203.068.508.204.508.34 0 .304-.203.473-.643.609-.441.135-1.186.169-1.931.169-2.844 0-4.232-.44-5.485-2.133-1.185-1.49-2.54-3.59-4.03-5.926-1.05-1.693-1.49-2.269-2.506-2.269-.169 0-.203.237-.237.372 0 2.608.102 5.994.136 7.18.034.643.203 1.117 1.625 1.49.576.168.948.372.948.643 0 .304-.542.474-1.05.474-.711 0-2.946-.068-3.928-.068-.982 0-2.607.135-3.623.135-.474 0-.88-.27-.88-.474 0-.304.271-.44.948-.61 1.558-.338 1.896-.812 1.998-2.776.068-1.625.068-3.826.068-7.28 0-3.76-.068-4.978-.102-6.163-.034-1.524-.339-1.93-1.456-2.27-.847-.236-1.05-.44-1.05-.676.068-.271.576-.407 1.016-.407zm42.091 10.058c0 4.232-1.795 6.941-4.063 8.77-1.829 1.422-4.572 2.303-7.044 2.303-3.386 0-6.332-1.287-8.364-3.454-1.727-1.863-2.777-4.403-2.777-7.383 0-3.928 1.727-6.433 4.165-8.364 1.457-1.117 4.166-2.302 6.875-2.302 7.111 0 11.208 5.282 11.208 10.43zm-15.644-7.653c-1.084 1.05-2.269 3.386-2.269 7.212 0 4.944 3.014 10.328 7.72 10.328a4.66 4.66 0 003.285-1.32c1.355-1.355 2.472-4.132 2.472-7.552 0-2.54-1.016-6.4-3.352-8.567-1.084-.948-2.845-1.727-4.267-1.727-1.388-.034-2.844.88-3.589 1.626zm24.346 6.941c2.201 0 6.434-.135 9.82-.135.136 0 .271-.305.305-.813.068-.406.068-4.199-.068-5.452-.135-1.15-.305-1.49-1.591-1.828-.441-.136-.948-.305-.948-.644 0-.237.338-.406 1.049-.406.407 0 2.811.102 3.624.102 1.015 0 3.047-.136 3.454-.136.609 0 .982.17.982.407 0 .338-.305.508-1.016.71-1.152.272-1.355.78-1.423 1.694-.169 1.524-.27 4.402-.27 8.973 0 3.15.101 4.843.135 5.892.034 1.253.339 1.355 1.659 1.761.576.204.915.407.915.677 0 .34-.441.44-1.016.44-.542 0-2.269-.1-3.251-.1-.711 0-3.285.169-3.928.169-.779 0-1.084-.17-1.084-.44 0-.272.407-.542.881-.678 1.591-.406 1.625-.677 1.794-3.048.102-1.286.136-4.3.068-5.18 0-.305-.135-.407-.271-.407-2.573 0-9.177-.101-9.82-.034-.169.034-.406.305-.406.474-.068 1.185 0 4.64.034 5.655.033 1.524.237 1.998 1.557 2.37.678.204 1.118.44 1.118.813.034.305-.61.407-1.016.407-.237 0-2.912-.102-4.03-.102-.745 0-2.37.136-3.488.136-.846 0-1.117-.17-1.117-.407 0-.338.339-.541.914-.71 1.422-.373 1.693-.746 1.863-2.1.135-1.287.304-6.095.304-10.498 0-.982.068-2.742 0-4.03-.067-1.049-.338-1.422-1.422-1.726-.745-.237-1.083-.44-1.083-.711 0-.305.406-.44.982-.44.88 0 2.641.135 3.487.135 1.355 0 2.811-.102 3.59-.102.677 0 1.05.136 1.05.407 0 .338-.407.541-1.084.71-1.355.305-1.456.915-1.49 2.236-.068 1.151-.203 4.91-.102 5.52-.033.27.102.44.339.44zm34.303-9.38c.237 0 .406.17.406.339-.068.948-.034 2.98 0 4.097.034.406-.203 1.016-.44 1.016-.271 0-.576-.17-.779-.914-.406-1.422-1.016-2.912-2.201-3.014-.982-.135-3.42-.102-4.097-.068-.644 0-.813.203-.813.508-.102 1.693-.102 4.606-.102 6.739 0 2.269.034 6.57.034 8.872.034 1.388.542 1.693 2.032 2.065.474.17.846.373.846.644 0 .27-.372.474-.948.474-.812 0-2.776-.17-3.995-.17-1.186 0-3.217.204-3.861.204-.508 0-.88-.305-.88-.44 0-.34.372-.576.948-.712 1.388-.304 1.524-.88 1.591-1.625.102-1.016.339-2.912.339-9.244 0-2.98 0-4.944-.068-5.79-.067-1.05-.304-1.457-1.557-1.728-.711-.203-.982-.372-.982-.711 0-.237.44-.406.948-.406 1.422 0 2.675.101 3.962.101h4.199c4.266-.034 5.045-.17 5.418-.237zm11.006 1.016c-.305 0-.745.204-.881.305-.101.102-.27.44-.304 1.185-.034.644-.034 4.64-.068 8.297 0 2.946.068 5.011.068 5.824.034 1.964.135 2.54 1.998 3.014.643.135.914.372.914.677 0 .27-.542.44-.982.44-.847 0-2.675-.203-4.098-.203-.948 0-2.505.136-3.521.136-.745 0-1.185-.17-1.185-.508 0-.238.44-.474.778-.576 1.592-.373 1.964-.88 2.066-2.337a72.37 72.37 0 00.203-5.011c0-1.016 0-8.229-.068-9.177-.101-1.117-.27-1.625-2.031-1.862-.407-.068-.745-.305-.745-.474 0-.271.305-.44.677-.508.203-.034.779-.034 1.05-.034 2.065 0 4.707-.271 6.163-.271 3.081 0 5.181.575 6.501 1.862 1.524 1.49 1.863 3.217 1.863 4.335 0 2.64-1.185 4.063-2.134 4.876-.846.711-2.607 1.456-3.86 1.456-.339 0-1.253-.068-1.659-.237-.44-.203-.677-.339-.677-.643 0-.136.237-.305.474-.305h.474c1.354 0 3.352-1.626 3.352-4.944 0-2.608-1.727-5.317-4.368-5.317zm22.315-.812c1.049 0 2.37-.135 2.844-.203.136-.034.339.203.373.406.033.576.033 2.811.033 3.454 0 .44-.237.915-.508.915-.304 0-.541-.474-.609-.813-.406-1.795-1.321-2.303-2.066-2.404-.609-.102-1.998-.237-4.469-.203-.136 0-.373.135-.407.914-.068.813-.169 5.282-.135 7.043 0 .102.135.305.304.305h2.574c2.303 0 2.235-.136 2.844-1.558.204-.474.407-.846.712-.846.27 0 .338.542.304.914-.067.914-.135 1.49-.135 2.235 0 .88.068 1.388.135 2.201.034.576-.169.982-.406.982-.271 0-.508-.372-.61-.711-.406-1.422-.846-1.626-2.099-1.727-1.016-.102-2.235-.102-3.217-.102-.135 0-.406.339-.406.373-.136.914-.102 3.42-.068 4.47.034.778 0 1.964.135 2.64.102.306.373.712.712.78.507.101 1.523.203 2.607.203.982 0 2.167 0 2.98-.305.948-.372 1.828-1.117 2.54-2.37.44-.847.745-1.118.982-1.118.338 0 .304.678.27.948 0 .271-.948 3.217-1.219 3.725-.101.237-.609.407-.778.407-.339 0-8.297-.17-10.735-.17-2.167 0-2.506.17-3.657.17-.61 0-1.084-.102-1.084-.407 0-.304.407-.508.982-.643 1.626-.372 2.066-.711 2.201-2.438.102-1.355.271-3.793.271-7.789 0-3.792.034-5.282-.033-6.196-.068-1.152-.339-1.795-1.694-2.066-.677-.135-1.015-.27-1.015-.576 0-.304.541-.474.982-.474 1.523 0 4.165.102 5.824.102h4.741v-.068zm23.094-.034a21.48 21.48 0 002.303.474c.237 0 .474.373.474.88.034.915.102 2.032.169 2.947.034.677-.203 1.219-.541 1.219-.17 0-.441-.373-.61-.88-.338-.983-.813-1.863-1.354-2.304-1.389-1.15-3.014-1.862-4.775-1.862-5.113 0-7.551 4.064-7.551 8.94 0 2.167.372 4.03 1.083 5.452 1.761 3.555 4.707 4.808 7.213 4.808.406 0 1.998-.068 3.115-.745 1.186-.677 2.066-1.625 2.811-2.946.372-.711.609-.982.88-.982.339 0 .339.847.271 1.185-.169.813-.677 2.235-.982 2.81-.101.305-.677.813-1.151 1.017-.44.169-2.675.948-5.621.948-4.775 0-8.161-2.134-9.482-3.623-1.219-1.423-2.709-3.658-2.709-7.247 0-3.894 2.201-6.637 3.556-7.72 2.743-2.27 6.061-2.913 8.703-2.913 1.489.034 3.047.271 4.198.542zm21.943 0a21.48 21.48 0 002.303.474c.237 0 .474.373.474.88.034.915.101 2.032.169 2.947.034.677-.203 1.219-.542 1.219-.169 0-.44-.373-.609-.88-.339-.983-.813-1.863-1.355-2.304-1.388-1.15-3.013-1.862-4.774-1.862-5.114 0-7.518 4.064-7.518 8.94 0 2.167.373 4.03 1.084 5.452 1.761 3.555 4.707 4.808 7.213 4.808.406 0 1.997-.068 3.115-.745 1.185-.677 2.065-1.625 2.81-2.946.373-.711.61-.982.881-.982.339 0 .339.847.271 1.185-.17.813-.677 2.235-.982 2.81-.102.305-.677.813-1.152 1.017-.44.169-2.675.948-5.621.948-4.774 0-8.161-2.134-9.481-3.623-1.219-1.423-2.709-3.658-2.709-7.247 0-3.894 2.201-6.637 3.555-7.72 2.743-2.27 6.062-2.913 8.703-2.913 1.456.034 2.98.271 4.165.542zM46.697 43.073c-.203 0-.542.136-.644.203-.067.068-.203.339-.203.88-.034.475-.034 3.489-.034 6.231 0 2.168.034 3.793.034 4.369.034 1.49.102 1.93 1.49 2.268.474.136.677.305.677.508 0 .204-.406.339-.745.339-.643 0-1.997-.135-3.081-.135-.711 0-1.896.067-2.641.067-.542 0-.88-.101-.88-.372 0-.17.338-.373.575-.44 1.185-.271 1.49-.644 1.558-1.727a62.81 62.81 0 00.135-3.76c0-.812 0-6.23-.034-6.907-.034-.847-.203-1.22-1.524-1.388-.304-.034-.541-.204-.541-.373 0-.203.203-.338.508-.372.169-.034.575-.034.812-.034 1.558 0 3.522-.203 4.605-.203 2.337 0 3.895.44 4.877 1.422a4.53 4.53 0 011.388 3.284c0 1.998-.88 3.048-1.592 3.658-.643.541-1.963 1.083-2.912 1.083-.27 0-.948-.034-1.253-.17-.338-.135-.508-.27-.508-.473 0-.102.17-.237.373-.237h.373c1.015 0 2.505-1.22 2.505-3.725 0-1.964-1.32-3.996-3.318-3.996zm9.176-.745c.575 0 1.727.136 2.506.136.71 0 2.133-.136 2.709-.136.474 0 .744.136.744.339 0 .237-.372.372-.643.44-.948.271-1.151.373-1.219 1.49-.034.88-.034 3.59-.034 4.707 0 .136.068.237.17.237 1.32-.068 2.099-.508 2.98-1.896.677-1.084 1.15-1.998 1.76-2.98.982-1.558 2.032-2.574 3.353-2.574.812 0 1.354.373 1.354 1.05 0 .203-.203 1.05-.372 1.22-.204.202-.407.304-.712.202-.44-.135-.88-.237-1.219-.237-1.05 0-1.523.474-2.302 1.727-.677 1.05-1.22 1.897-1.558 2.438-.034.034-.034.136 0 .203.542 1.05 2.71 4.47 3.759 5.892 1.591 2.1 2.235 2.27 3.522 2.574.135.034.372.136.372.271 0 .203-.135.373-.474.474-.339.102-.88.136-1.456.136-2.133 0-3.183-.34-4.131-1.592-.88-1.117-1.897-2.675-3.014-4.47-.813-1.287-1.118-1.693-1.896-1.727-.136 0-.136.17-.17.305 0 1.964.068 4.504.102 5.384.034.508.135.88 1.219 1.151.44.136.711.305.711.474 0 .204-.406.373-.813.373-.541 0-2.2-.034-2.946-.034-.745 0-1.964.102-2.743.102-.372 0-.643-.203-.643-.373 0-.203.203-.339.711-.474 1.151-.27 1.422-.61 1.49-2.066.034-1.219.034-2.878.034-5.485 0-2.845-.034-3.759-.068-4.605-.034-1.152-.237-1.457-1.083-1.694-.644-.169-.813-.338-.813-.508.102-.338.474-.474.813-.474zm33.794.102c.576.136 1.185.305 1.727.373.17 0 .372.305.372.643.034.711.068 1.558.136 2.235.034.508-.136.914-.406.914-.136 0-.305-.304-.474-.643-.238-.745-.61-1.388-1.016-1.727-1.05-.88-2.27-1.388-3.59-1.388-3.86 0-5.655 3.013-5.655 6.738 0 1.626.305 3.014.813 4.098 1.32 2.675 3.522 3.59 5.418 3.59.305 0 1.49-.035 2.336-.543.88-.508 1.558-1.219 2.1-2.2.305-.543.474-.746.643-.746.271 0 .271.644.204.88-.136.61-.509 1.66-.712 2.1-.067.203-.508.61-.88.779-.339.136-1.998.711-4.233.711-3.59 0-6.129-1.625-7.077-2.743-.914-1.05-2.032-2.743-2.032-5.418 0-2.912 1.626-4.977 2.641-5.824 2.066-1.693 4.538-2.167 6.536-2.167 1.117-.034 2.269.135 3.149.338zm11.921 6.501c.542.542.914 1.287.914 2.134 0 .169-.237.575-.542.575h-5.282c-.136 0-.237.068-.271.17-.068.203-.102.541-.102.88 0 .542.305 1.66.745 2.235.61.779 1.626 1.219 2.675 1.219 1.016 0 1.727-.237 2.168-.847.101-.135.203-.304.304-.304.102 0 .204.169.204.304 0 .136-.068.407-.204.61-.745 1.151-1.896 2.1-3.86 2.1-2.777 0-4.47-2.1-4.47-4.877 0-1.93 1.05-3.86 3.082-4.808a4.561 4.561 0 011.998-.474c1.015.067 2.031.474 2.641 1.083zm-5.012 1.727a.185.185 0 00.17.237c.643.034 1.388 0 2.573 0 .406 0 .847-.237.847-.812 0-.678-.678-1.49-1.355-1.49-.982 0-1.93.948-2.235 2.065zm17.066-1.32a4.915 4.915 0 011.185 3.183c0 1.76-.779 3.183-2.066 4.199-1.354 1.05-2.878 1.219-3.724 1.219a11.2 11.2 0 01-1.186-.068c-.101-.034-.203.203-.203.339-.034 1.083.034 3.115.102 3.657.068.643.203 1.016 1.151 1.32.474.136.644.34.644.508 0 .203-.373.305-.678.305-.677 0-2.336-.135-3.217-.135-.609 0-.914.067-1.964.067-.406 0-.711-.135-.711-.372 0-.136.237-.339.644-.44 1.151-.237 1.286-.542 1.354-1.964.034-.847.068-2.777.068-5.215 0-1.626.034-4.335-.034-5.249-.034-.508-.102-.61-.169-.677-.441-.339-.915-.745-.915-.88 0-.136.271-.474.508-.542.474-.136 1.829-.542 2.472-.948.237-.136.44-.204.474-.204.102 0 .305.204.305.339-.034.44-.034.745-.068 1.151 0 .102.136.204.204.17a8.73 8.73 0 011.422-.78 4.364 4.364 0 011.659-.338c.982 0 2.099.61 2.743 1.355zm-5.689.372c-.068.068-.237.373-.271.644-.135 1.05-.135 3.013-.101 4.3 0 .44.101.847.237 1.118.507.88 1.489 1.388 1.997 1.388.271 0 .542-.068.813-.305 1.253-.914 1.456-3.014 1.456-3.657 0-.643-.135-1.896-1.016-2.878-.541-.61-1.422-.88-1.828-.88a2.58 2.58 0 00-1.287.27zm15.916 2.743c-.135.034-.034.136.034.17.44.135.982.372 1.151.541.373.305.881.711.881 1.727 0 1.32-.982 2.167-1.998 2.54-.914.338-2.1.372-3.082.372-.541 0-1.049-.034-1.693-.034-.779 0-1.727.034-2.573.068-.339.034-.644-.203-.644-.372 0-.204.305-.305.61-.373.846-.203.88-.542.914-1.151.068-.508.102-1.32.102-3.183 0-.948.034-1.795-.034-2.743-.034-.61-.102-.813-.914-1.05-.305-.068-.542-.27-.542-.542 0-.135.101-.237.508-.237.44 0 1.422.068 1.896.068s2.506-.135 3.251-.135c1.524 0 3.555.372 3.555 2.302.034 1.152-.677 1.693-1.422 2.032zm-3.048-3.522c-.338 0-.541.068-.643.136-.068.068-.135.203-.135.542-.034.338-.034 2.065 0 2.404.034.203.135.237.271.237.406 0 1.151-.034 1.557-.17.644-.236.982-.778.982-1.49-.034-.609-.609-1.659-2.032-1.659zm1.626 4.504c-.373-.237-1.118-.406-1.558-.406-.305 0-.44 0-.643.034-.102.033-.136.135-.169.304-.034.237-.034 1.152-.034 1.964 0 .474.034.847.271 1.185.203.271.711.542.948.542 1.151 0 2.031-.982 2.031-2.065 0-.711-.406-1.22-.846-1.558zm5.621-5.249c.474 0 1.321.068 2.032.068.575 0 1.354-.068 2.065-.068.237 0 .542.102.542.27 0 .204-.169.373-.542.475-.812.203-.711.542-.779.88a64.88 64.88 0 00-.033 4.403c.033.135.101.169.203.067.948-1.05 2.336-2.641 3.284-3.69.271-.306.373-.543.373-.678v-.305c0-.338-.102-.541-.711-.71-.136-.035-.407-.204-.407-.373 0-.203.204-.305.61-.305.508 0 1.151.068 1.896.068.711-.034 1.253-.102 1.897-.102.44 0 .609.136.609.305 0 .203-.169.338-.576.474-.677.203-.778.542-.812.846 0 .204-.034 1.084-.034 2.134 0 1.422.034 3.25.068 4.097.033.779.507.914.948 1.016.372.102.575.305.575.474 0 .136-.304.373-.541.373-.61 0-1.355-.068-2.1-.068-.643 0-1.49.068-2.336.068-.305 0-.61-.136-.61-.373 0-.203.169-.305.576-.406.542-.17.812-.508.846-.813.034-.643.136-1.558.136-4.673 0-.135-.102-.136-.17-.034-1.117 1.22-2.573 2.845-3.42 3.86-.101.136-.237.305-.237.508v.373c0 .305.17.542.644.711.304.068.541.237.541.373 0 .236-.304.44-.643.44-.237 0-1.591-.034-2.167-.034-.813 0-1.388.068-1.829.068-.203 0-.677-.034-.677-.34 0-.202.237-.372.643-.473.61-.17.813-.373.881-.677.034-.339.068-.813.068-1.998 0-2.168 0-3.962-.034-4.47-.034-.542-.17-.711-.813-.948-.44-.17-.542-.339-.542-.474-.034-.237.203-.339.576-.339zm20.655.406c.305.203.407.542.407.88 0 .44-.813 1.152-.948 1.152-.204 0-.61-.17-1.118-.61-.643-.541-1.151-1.05-1.896-1.05-.271 0-.677.136-1.05.543-.609.643-.948 1.828-.948 2.946 0 1.557.643 2.404.779 2.54a3.186 3.186 0 002.641 1.32c.711 0 1.49-.305 2.337-.813.135-.068.304 0 .304.203 0 .237-.203.542-.372.745-.813.88-2.235 1.626-3.725 1.626-1.761 0-3.115-.915-3.793-1.93-.474-.745-.812-1.83-.812-2.811 0-1.896.982-3.25 2.404-4.199.846-.61 2.438-1.05 3.42-1.05.745-.034 1.964.17 2.37.508z"/></svg>