<?xml version="1.0" encoding="utf-8"?><svg viewBox="0 0 25 25" xmlns="http://www.w3.org/2000/svg" xmlns:xlink="http://www.w3.org/1999/xlink"><style>:root>svg{display:none}:root>svg:target{display:block}</style><svg fill="none" viewBox="0 0 12 16" id="icon-arrow-breadcrumbs" xmlns="http://www.w3.org/2000/svg"><path d="M4 3.5L8.5 8 4 12.5" stroke="#212529"/></svg><svg fill="none" viewBox="0 0 10 13" id="icon-arrow-next" xmlns="http://www.w3.org/2000/svg"><path d="M3.308 1.727a.832.832 0 00-.183.53c0 .2.066.39.183.53L6.402 6.5l-3.094 3.713a.836.836 0 00-.176.528.831.831 0 00.183.523.578.578 0 00.437.22.574.574 0 00.44-.21L7.727 7.03a.832.832 0 00.183-.53.832.832 0 00-.183-.53L4.192 1.726a.577.577 0 00-.442-.22.577.577 0 00-.442.22z" fill="currentColor"/></svg><svg fill="none" viewBox="0 0 10 13" id="icon-arrow-prev" xmlns="http://www.w3.org/2000/svg"><path d="M6.692 11.274a.832.832 0 00.183-.53.832.832 0 00-.183-.53L3.598 6.5l3.094-3.713a.836.836 0 00.176-.527.831.831 0 00-.183-.524.578.578 0 00-.437-.22.574.574 0 00-.44.21L2.273 5.97a.832.832 0 00-.183.53c0 .2.066.39.183.53l3.535 4.244c.118.14.277.22.442.22a.577.577 0 00.442-.22z" fill="currentColor"/></svg><svg fill="none" viewBox="0 0 20 20" id="icon-basket" xmlns="http://www.w3.org/2000/svg"><path d="M18.22 4.4a.937.937 0 00-.72-.338H5.156L4.73 1.708a.938.938 0 00-.922-.77H1.875a.937.937 0 100 1.875h1.15L4.97 13.517c.053.284.16.555.318.797a2.5 2.5 0 104.321 1h2.657a2.5 2.5 0 102.421-1.876H7.123a.313.313 0 01-.307-.256l-.182-.993h8.686a2.187 2.187 0 002.153-1.797l.95-5.224a.938.938 0 00-.203-.768zM7.813 15.936a.625.625 0 11-1.25 0 .625.625 0 011.25 0zm6.875.626a.625.625 0 110-1.251.625.625 0 010 1.25zm.937-6.507a.313.313 0 01-.305.257H6.294l-.796-4.376h10.879l-.752 4.12z" fill="currentColor"/></svg><svg fill="none" viewBox="0 0 24 24" id="icon-caret-select" xmlns="http://www.w3.org/2000/svg"><path opacity=".5" d="M16.8 9.6L12 14.4 7.2 9.6" stroke="#A20F30" stroke-width="2" stroke-linecap="round" stroke-linejoin="round"/></svg><svg fill="none" viewBox="0 0 10 10" id="icon-check" xmlns="http://www.w3.org/2000/svg"><g clip-path="url(#fclip0_4749_3383)"><rect width="10" height="10" rx="5" fill="#fff"/><path d="M4.268 6.797L2.5 5.03l.59-.589 1.178 1.178 2.357-2.357.59.59-2.947 2.946z" fill="#A20F30"/><path fill-rule="evenodd" clip-rule="evenodd" d="M.416 5a4.583 4.583 0 119.167 0A4.583 4.583 0 01.416 5zm4.583 3.75a3.75 3.75 0 110-7.5 3.75 3.75 0 010 7.5z" fill="#A20F30"/></g><defs><clipPath id="fclip0_4749_3383"><rect width="10" height="10" rx="5" fill="#fff"/></clipPath></defs></svg><svg fill="none" viewBox="0 0 16 16" id="icon-check-status" xmlns="http://www.w3.org/2000/svg"><path d="M14.116 6.426c-.235-.246-.48-.5-.571-.723-.085-.204-.09-.543-.095-.871-.01-.61-.02-1.301-.5-1.782-.48-.48-1.172-.49-1.782-.5-.328-.005-.667-.01-.871-.095-.223-.092-.477-.336-.723-.571C9.143 1.469 8.653 1 8 1c-.652 0-1.142.47-1.574.884-.246.235-.5.48-.723.571-.203.085-.543.09-.871.095-.61.01-1.301.02-1.782.5-.48.48-.487 1.172-.5 1.782-.005.328-.01.667-.095.871-.092.223-.336.477-.571.723C1.469 6.857 1 7.347 1 8c0 .652.47 1.142.884 1.574.235.246.48.5.571.723.085.204.09.543.095.871.01.61.02 1.301.5 1.782.48.48 1.172.49 1.782.5.328.005.667.01.871.095.223.092.477.336.723.571.431.415.921.884 1.574.884.652 0 1.142-.47 1.574-.884.246-.235.5-.48.723-.571.204-.085.543-.09.871-.095.61-.01 1.301-.02 1.782-.5.48-.48.49-1.172.5-1.782.005-.328.01-.667.095-.871.092-.223.336-.477.571-.723C14.531 9.143 15 8.653 15 8c0-.652-.47-1.142-.884-1.574zm-.722 2.456c-.299.312-.609.636-.773 1.032-.158.382-.165.817-.171 1.24-.006.437-.013.895-.207 1.088-.195.194-.65.202-1.09.208-.422.006-.857.013-1.239.17-.396.165-.72.475-1.032.774-.313.3-.632.606-.882.606s-.572-.307-.882-.606c-.31-.298-.636-.609-1.032-.773-.382-.158-.817-.165-1.24-.171-.437-.006-.895-.013-1.089-.207-.193-.195-.2-.65-.207-1.09-.006-.422-.013-.857-.17-1.239-.165-.396-.475-.72-.774-1.032C2.306 8.569 2 8.25 2 8s.308-.572.606-.882c.298-.31.609-.636.773-1.032.158-.382.165-.817.171-1.24.006-.437.013-.895.208-1.089.194-.193.649-.2 1.089-.207.422-.006.857-.013 1.239-.17.396-.165.72-.475 1.032-.774C7.431 2.306 7.75 2 8 2s.572.308.882.606c.31.298.636.609 1.032.773.382.158.817.165 1.24.171.437.006.895.013 1.088.208.194.194.202.649.208 1.089.006.422.013.857.17 1.239.165.396.475.72.774 1.032.3.313.606.632.606.882s-.307.572-.606.882zm-2.54-2.736a.502.502 0 010 .708l-3.5 3.5a.502.502 0 01-.708 0l-1.5-1.5a.5.5 0 11.708-.708L7 9.293l3.146-3.147a.5.5 0 01.708 0z" fill="currentColor"/></svg><svg fill="none" viewBox="0 0 20 20" id="icon-check-white" xmlns="http://www.w3.org/2000/svg"><path fill-rule="evenodd" clip-rule="evenodd" d="M15.554 5.556c-.31 0-.589.122-.789.322l-6.989 7-2.544-2.556A1.114 1.114 0 003.654 11.9l3.334 3.333c.2.2.477.323.788.323.312 0 .59-.123.79-.323l7.777-7.777a1.114 1.114 0 00-.789-1.9z" fill="#fff"/></svg><svg fill="none" viewBox="0 0 24 25" id="icon-close" xmlns="http://www.w3.org/2000/svg"><path d="M.891 24.296a1.797 1.797 0 010-2.542L20.59 2.056a1.797 1.797 0 012.542 2.541L3.433 24.296a1.797 1.797 0 01-2.542 0z" fill="currentColor"/><path d="M.632 2.056a1.797 1.797 0 012.542 0l19.698 19.698a1.797 1.797 0 01-2.542 2.542L.632 4.597a1.797 1.797 0 010-2.541z" fill="currentColor"/></svg><svg fill="none" viewBox="0 0 25 24" id="icon-email" xmlns="http://www.w3.org/2000/svg"><path d="M20.5 4a2 2 0 011.995 1.85L22.5 6v12a2 2 0 01-1.85 1.995L20.5 20h-16a2 2 0 01-1.995-1.85L2.5 18V6a2 2 0 011.85-1.995L4.5 4h16zm0 3.414l-6.94 6.94a1.5 1.5 0 01-2.12 0L4.5 7.414V18h16V7.414zM19.086 6H5.914l6.586 6.586L19.086 6z" fill="currentColor"/></svg><svg fill="none" viewBox="0 0 24 24" id="icon-location" xmlns="http://www.w3.org/2000/svg"><path d="M12 20.9l4.95-4.95a7 7 0 10-9.9 0L12 20.9zm0 2.828l-6.364-6.364a9 9 0 1112.728 0L12 23.728zM12 13a2 2 0 100-4 2 2 0 000 4zm0 2a4 4 0 110-8 4 4 0 010 8z" fill="currentColor"/></svg><svg fill="none" viewBox="0 0 16 16" id="icon-notify" xmlns="http://www.w3.org/2000/svg"><path d="M8 14.83c3.73 0 6.83-3.094 6.83-6.83 0-3.73-3.107-6.83-6.837-6.83C4.257 1.17 1.17 4.27 1.17 8c0 3.736 3.093 6.83 6.83 6.83zm0-1.138A5.665 5.665 0 012.314 8a5.663 5.663 0 015.68-5.692A5.689 5.689 0 0113.691 8 5.67 5.67 0 018 13.692m-.007-4.48c.321 0 .502-.18.509-.529l.1-3.536c.007-.341-.26-.596-.616-.596-.362 0-.616.248-.61.59l.088 3.542c.006.342.194.529.53.529zm0 2.176c.381 0 .723-.308.723-.696 0-.395-.335-.697-.723-.697-.395 0-.723.308-.723.697 0 .382.334.696.723.696z" fill="#A20F30"/></svg><svg fill="none" viewBox="0 0 14 14" id="icon-pen" xmlns="http://www.w3.org/2000/svg"><path fill-rule="evenodd" clip-rule="evenodd" d="M13.462 12.52a.539.539 0 010 1.077H8.254a.539.539 0 010-1.077h5.208zM10.134.47l1.237.96c.437.26.778.725.907 1.275a2.055 2.055 0 01-.275 1.596l-.005.007c-.049.064-.26.331-1.326 1.667a.538.538 0 01-.092.115l-.23.288-.164.205-1.213 1.52-.244.304-3.597 4.501c-.33.41-.823.65-1.354.656l-2.613.033h-.007a.539.539 0 01-.524-.414l-.588-2.492c-.121-.516 0-1.049.33-1.462L7.14.77l.008-.01a2.157 2.157 0 012.987-.29zM6.385 3.436L1.217 9.9a.631.631 0 00-.123.543l.49 2.07 2.181-.027a.68.68 0 00.526-.252l2.323-2.906.299-.375.3-.375 2.231-2.793-3.059-2.35zm1.591-1.99l-.918 1.148 3.059 2.349 1.012-1.27a.976.976 0 00.102-.72 1.013 1.013 0 00-.468-.637c-.051-.036-1.261-.975-1.298-1.004a1.075 1.075 0 00-1.489.135z" fill="#A20F30"/></svg><svg fill="none" viewBox="0 0 24 24" id="icon-tel" xmlns="http://www.w3.org/2000/svg"><path d="M11 16a1 1 0 000 2h2a1 1 0 000-2h-2zM9 2a3 3 0 00-3 3v14a3 3 0 003 3h6a3 3 0 003-3V5a3 3 0 00-3-3H9zM8 5a1 1 0 011-1h6a1 1 0 011 1v14a1 1 0 01-1 1H9a1 1 0 01-1-1V5z" fill="currentColor"/></svg><svg fill="none" viewBox="0 0 16 17" id="icon-time" xmlns="http://www.w3.org/2000/svg"><path d="M8 14.75a6.25 6.25 0 100-12.5 6.25 6.25 0 000 12.5z" stroke="#fff" stroke-width="1.5" stroke-linecap="round" stroke-linejoin="round"/><path d="M8.25 5.25v3.5l-2.5 2" stroke="#fff" stroke-width="1.5" stroke-linecap="round" stroke-linejoin="round"/></svg><svg fill="none" viewBox="0 0 16 16" id="icon-user" xmlns="http://www.w3.org/2000/svg"><path d="M1.6 13.675c0-2.517 2.102-4.557 6.4-4.557 4.297 0 6.4 2.04 6.4 4.557 0 .4-.293.725-.653.725H2.252c-.36 0-.652-.325-.652-.725zM10.4 4a2.4 2.4 0 11-4.8 0 2.4 2.4 0 014.8 0z" stroke="#A20F30"/></svg></svg>